<?xml version="1.0" standalone="no"?>
<!DOCTYPE svg PUBLIC "-//W3C//DTD SVG 20010904//EN"
 "http://www.w3.org/TR/2001/REC-SVG-20010904/DTD/svg10.dtd">
<svg version="1.0" xmlns="http://www.w3.org/2000/svg"
 width="1046.000000pt" height="1046.000000pt" viewBox="0 0 1046.000000 1046.000000"
 preserveAspectRatio="xMidYMid meet">
<metadata>
Created by potrace 1.14, written by Peter Selinger 2001-2017
</metadata>
<g transform="translate(0.000000,1046.000000) scale(0.100000,-0.100000)"
fill="#000000" stroke="none">
<path d="M762 7572 c-212 -255 -428 -668 -560 -1068 -70 -213 -149 -564 -167
-741 -3 -34 -8 -71 -10 -84 -12 -61 -20 -261 -19 -499 0 -275 4 -353 30 -565
12 -104 15 -122 25 -180 6 -33 12 -69 14 -80 1 -11 10 -56 20 -100 118 -565
349 -1048 657 -1377 l44 -48 1522 0 c1740 0 1540 -12 1725 100 269 162 234
136 627 470 42 36 98 83 124 105 27 22 54 45 60 50 9 9 103 88 225 190 13 11
29 25 35 30 6 6 37 32 68 59 l58 48 52 -43 c29 -24 55 -46 58 -49 3 -3 88 -75
190 -160 102 -85 187 -157 190 -160 3 -3 48 -41 100 -85 52 -44 100 -84 106
-90 103 -92 260 -218 305 -245 32 -19 113 -68 179 -109 205 -124 -5 -111 1733
-111 l1514 0 63 70 c34 38 70 79 78 92 9 13 19 25 22 28 3 3 22 28 42 55 143
198 290 493 378 755 45 135 108 373 124 465 3 17 12 68 20 115 18 102 24 144
31 207 3 27 7 68 10 93 14 123 20 276 20 480 0 210 -10 452 -19 482 -3 7 -7
38 -10 70 -8 84 -16 131 -43 268 -13 69 -26 136 -29 150 -17 87 -90 332 -136
460 -74 204 -193 456 -289 615 -30 50 -61 101 -69 115 -8 14 -18 27 -21 30 -3
3 -20 28 -39 55 -18 28 -57 80 -86 116 -29 37 -50 69 -47 73 4 3 -633 6 -1415
6 l-1421 0 -68 -25 c-66 -24 -181 -78 -273 -130 -115 -64 -322 -191 -342 -210
-13 -11 -63 -54 -113 -95 -49 -41 -92 -77 -95 -80 -3 -3 -41 -34 -85 -70 -44
-36 -89 -73 -100 -82 -11 -9 -94 -78 -185 -154 -91 -75 -202 -168 -247 -205
l-82 -69 -248 206 c-136 114 -266 221 -288 239 -22 19 -124 103 -227 189 -150
124 -222 176 -355 254 -211 124 -329 184 -417 211 -68 21 -72 21 -1482 21
l-1413 0 -49 -58z m1398 -1088 c52 -43 100 -83 106 -89 6 -5 32 -28 59 -50 26
-22 53 -45 59 -50 6 -6 97 -82 201 -170 105 -88 195 -164 201 -170 6 -5 105
-89 219 -185 115 -96 243 -204 285 -240 42 -36 99 -84 126 -106 27 -23 95 -81
151 -129 l102 -87 -32 -26 c-18 -15 -34 -29 -37 -32 -3 -3 -83 -70 -179 -149
-95 -79 -183 -151 -195 -161 -11 -10 -55 -46 -96 -80 -41 -34 -95 -79 -120
-99 -89 -75 -187 -157 -226 -188 -22 -18 -56 -46 -75 -62 -19 -16 -108 -90
-199 -166 -91 -75 -183 -151 -205 -170 -22 -18 -69 -57 -105 -86 -36 -30 -74
-62 -85 -72 -11 -10 -32 -28 -47 -39 l-28 -19 -10 25 c-73 193 -139 398 -185
581 -16 62 -56 253 -60 290 -4 32 -13 100 -20 150 -22 151 -22 489 0 660 2 16
7 52 10 80 30 227 116 561 212 822 41 111 47 123 62 110 9 -7 59 -49 111 -93z
m6283 69 c3 -10 22 -63 41 -118 72 -198 146 -475 180 -665 14 -75 19 -111 31
-210 23 -178 23 -481 0 -660 -18 -143 -40 -269 -72 -400 -44 -184 -103 -374
-186 -597 l-12 -32 -34 27 c-34 27 -259 214 -341 282 -25 21 -142 118 -260
216 -825 684 -970 806 -970 813 0 7 42 44 262 228 54 45 104 88 112 95 7 7 44
38 81 68 37 30 77 64 89 75 12 11 46 40 76 65 30 25 68 57 85 71 16 15 95 82
175 149 80 67 165 139 190 160 25 21 97 82 160 135 63 53 126 107 140 118 14
12 68 58 120 102 52 44 97 83 98 87 7 15 30 8 35 -9z"/>
</g>
</svg>
